<?xml version="1.0" encoding="utf-8"?>
<!-- Generator: Adobe Illustrator 24.0.1, SVG Export Plug-In . SVG Version: 6.00 Build 0)  -->
<svg version="1.1" id="Layer_1" xmlns="http://www.w3.org/2000/svg" xmlns:xlink="http://www.w3.org/1999/xlink" x="0px" y="0px"
	 viewBox="0 0 1920 1080" style="enable-background:new 0 0 1920 1080;" xml:space="preserve">
<style type="text/css">
	.st0{fill:#292526;}
	.st1{fill:#AA1D2B;}
	.st2{fill:#FEFDFD;}
</style>
<g>
	<path class="st0" d="M769.61,594.84c-1.52-0.36-2.85,0.05-4.24,0.67c-13.42,5.91-27.63,8.6-42.33,9.4
		c-22.1,1.2-39.88-13.11-42.41-33.98c-1.84-15.2,3.14-28.78,10.24-41.92c2.36-4.36,5.01-8.58,7.66-12.79
		c0.79-1.26,1.31-2.48,1.21-3.93c6.44-5.37,10.21-12.62,14.92-19.2c1.24-1.18,2.61-2.27,3.71-3.56c8.51-10.06,17.42-19.77,26.93-29
		c23.08-22.41,47.91-42.84,75.6-59.96c8.14-5.03,16.34-10.07,25.68-13c7.46-2.34,11.13-1.02,15.1,5.43
		c5.73,9.32,5.05,17.32-2.34,26.45c-18.18,22.47-40.1,41.05-65.07,56.39c-8.03,4.94-16.14,9.88-25.66,11.98
		c-1.22,0.27-2.87,0.84-3.46-0.73c-0.43-1.15,0.76-2.02,1.75-2.64c1.1-0.69,2.26-1.31,3.42-1.9c4.55-2.32,9.03-4.72,12.95-7.99
		c12.18-10.19,24.04-20.71,34.96-32.13c10.82-11.32,21.51-22.75,28.77-36.6c1.33-2.54,2.8-5.13,2.21-8.58
		c-8.48,3.76-15.89,8.57-23.21,13.49c-29.05,19.54-54.67,42.65-77.94,68.16c-18.5,20.3-35.76,41.44-47.26,66.26
		c-3.96,8.53-6.34,17.41-6.04,26.89c0.39,12.01,6.67,17.89,19.18,18.38c18.09,0.72,34.32-5.31,49.72-13
		c31.7-15.83,60.69-35.59,87.99-57.61c1.72-1.39,2.02-2.63,1.77-4.68c-0.61-4.9-0.31-9.8,1.3-14.57
		c4.87-14.41,14.49-25.55,26.86-34.63c9.72-7.14,20.33-12.48,33.09-12.46c11.35,0.02,20.92,8.88,21.14,19.67
		c0.17,8.02-2.32,15.5-5.49,22.79c-6.08,14-14.94,26.34-25.21,37.83c-1,1.12-3.21,2.24-2.5,3.6c0.95,1.82,3.25,0.41,4.75,0.14
		c14.97-2.76,26.86-10.98,38.27-19.99c1.96-1.55,3.29-3.51,4.57-5.61c13.82-22.73,33.41-39.72,57.7-51.88
		c5.91-2.96,10.09-1.92,13.69,2.52c3.62,4.47,3.44,6.94-1.05,12.37c-5.93,7.16-11.94,14.26-17.87,21.41
		c-2.32,2.8-3.99,5.88-4.28,9.53c-0.11,1.35,0.1,2.99-1.68,3.58c-1.99,0.67-3.4-0.53-4.67-1.71c-1.3-1.21-2.05-2.73-2.11-4.51
		c-0.2-5.61-0.51-11.23,2.2-16.51c1.21-2.35,2.19-4.81,3.27-7.22c-12.16,10.09-22.76,21.3-31.33,34.19
		c-5.1,7.67-9.24,15.61-9.8,24.91c-0.33,5.44,1.07,7.39,6.7,8.4c4.77,0.85,9.45,0.16,13.97-1.11c17.04-4.78,31.9-13.66,46.44-23.02
		c5.2-3.35,10.83-6.31,14.56-11.45c3.18-4.39,6.36-8.78,9.76-13.02c26.59-33.23,56.29-63.79,88.05-92.57
		c9.4-8.52,18.98-16.84,29.14-24.54c1.81-1.37,3.65-2.56,5.87-0.65c2.89,2.48,2.82,7.05-0.21,9.41
		c-6.85,5.33-13.25,11.12-19.45,17.14c-15.07,14.65-29.08,30.19-42.61,46.12c-15.75,18.55-30.75,37.65-45.03,57.25
		c-0.9,1.24-2.43,2.75-0.81,4.05c1.64,1.32,2.52-0.78,3.39-1.65c15.21-15.27,31.33-29.62,47.99-43.44
		c6.44-5.35,13.18-10.37,19.77-15.54c1.66-1.3,3.4-2.21,5.67-1.45c4.26,1.43,7.93,7.46,6.74,11.59c-0.85,2.96-1.78,5.98-3.26,8.69
		c-11.66,21.22-27.41,39.14-48.14,52.89c-6.85,4.55-14.31,7.8-22.86,8.11c-5.88,0.21-5.88,0.19-5.49,5.88
		c0.04,0.56-0.02,1.13,0.09,1.68c2.23,11.9,6.03,17.11,20.11,11.11c1.21-0.51,2.4-1.06,3.58-1.64c11.99-5.9,22.48-13.83,33.14-21.6
		c8.82-6.43,15.27-13.88,19.48-24.06c9-21.74,22.59-41.21,36.29-60.53c0.82-1.16,2.37-2.14,1.68-4.33
		c-7.27,1.19-14.51,2.33-21.73,3.58c-7.24,1.25-14.44,2.78-21.71,3.86c-3.89,0.58-5.89-1.61-6.54-5.26
		c-0.66-3.69,1.36-4.99,4.62-5.85c16.82-4.44,33.98-6.95,51.37-7.9c3.27-0.18,5.35-1.15,7.32-3.63
		c11.58-14.54,23.39-28.92,37.14-41.7c5.44-5.05,11.13-4.37,15.89,1.42c2.37,2.88,2.49,5.27-0.48,8.03
		c-4.84,4.5-9.48,9.23-13.95,14.07c-5.78,6.27-11.36,12.72-16.53,20.36c2.95,0.14,5.25,0.18,7.53,0.38
		c8.34,0.74,16.81,0.6,24.92,3.07c3.82,1.16,6.69,3.52,8.57,6.87c0.71,1.26,1.01,2.88-0.37,3.87c-1.64,1.18-2.19-0.51-3-1.42
		c-1.42-1.59-3.32-2.22-5.44-2.48c-12.35-1.51-24.71-1.15-37.09-0.3c-2.24,0.15-3.77,0.97-5.04,2.79
		c-17.63,25.26-34.76,50.79-47.09,78.89c-5.05,11.51-10.11,23.09-10.29,35.88c-0.08,5.82,2.85,8.08,8.95,7.07
		c5.76-0.95,11-3.18,15.89-6.11c15.14-9.07,29.12-19.6,42.42-30.94c5.89-5.02,11.98-9.72,16.16-16.45
		c9.18-14.77,21.17-27.27,35.94-37.22c9.18-6.18,18.91-10.89,30.67-10.16c6.93,0.43,11.05,3.4,13.48,9.66
		c1.21,3.13,0.53,6.38,1.14,9.82c5.11-2.58,8.22,0.56,10.99,3.62c2.94,3.26,2.5,6.79,0.09,10.45c-5.08,7.73-9.92,15.6-14.75,23.48
		c-4.81,7.83-7.4,16.44-9.31,25.25c-0.36,1.65-0.44,3.54,1.09,4.71c1.73,1.32,3.4-0.09,4.87-0.81c2.09-1.02,4.06-2.29,5.97-3.6
		c10.99-7.59,21.35-15.92,31.6-24.37c3.21-2.65,6.64-5.08,9-8.6c5.1-7.61,11.13-14.48,18.5-20.22c4.57-3.56,7.6-3.54,11.04,0.11
		c4.82,5.12,5.24,9,0.57,12.63c-8.84,6.88-15.17,15.63-21.18,24.65c-3.98,5.97-6.83,12.42-8.24,19.39
		c-0.71,3.54,0.68,4.84,4.32,3.87c2.25-0.59,4.45-1.51,6.49-2.59c12.45-6.57,23.17-15.4,34.22-23.8
		c7.46-5.67,14.57-11.39,15.85-21.18c0.05-0.4,0.37-0.76,0.53-1.15c8.65-21.7,21.51-41.07,36.12-59.51
		c4.34-5.47,9.67-10.23,13.07-16.37c1.44-0.39,2.65-1.11,3.66-2.19c9.67-10.37,19.83-20.26,31.75-28.35
		c4.07-2.91,9.8-2.26,14.29,1.62c3.23,2.8,3.63,6.87,0.9,10.96c-8.23,12.31-17.46,23.94-27.2,35.19
		c-4.37,5.05-8.75,10.02-10.77,16.44c-0.76-1.08-1.57-2.43-2.92-0.67c-2.6,3.39-5.93,6.15-8.76,9.3
		c-7.47,8.32-15.04,16.62-23.82,23.59c-6.44,5.12-10.11,11.41-13.22,18.37c-2.48,5.53-3.96,11.3-5.13,17.22
		c-0.88,4.4-1.9,8.72-1.83,13.22c0.03,2.16,0.82,3.55,3.39,3.34c-2.22,3.97-1.31,5.54,3.4,5.65c6.66,0.16,12.2-2.85,17.67-5.88
		c13.3-7.37,25.15-16.58,36.55-26.35c1.43-1.23,2.51-4.12,5.17-2.65c1.88,1.04,2.07,7.22,0.56,8.88
		c-3.86,4.23-7.73,8.47-11.77,12.54c-8,8.06-16.56,15.5-26.12,21.93c-10.94,7.36-23.34,7.53-32.97-1.35
		c-0.48-0.44-1.31-0.55-1.97-0.81c-0.48-4.63-4.04-8.15-4.93-12.72c-0.58-2.96,0.54-6.21-1.57-8.9c0.08-2.01,0.47-4.04-0.25-6.35
		c-5.68,5.14-10.93,10-16.31,14.73c-7.47,6.56-14.83,13.32-23.88,17.93c-8.96,4.56-19.22-0.29-22.27-9.58
		c-1.76-5.36-4.3-10.45-4.1-16.55c-1.44,0.75-2.06,1.71-2.87,2.5c-7.19,7.04-14.48,13.99-22.84,19.81
		c-12.23,8.52-24.93,4.3-29.2-9.56c-2.7-8.76-0.21-16.94,2.87-25.03c2.32-6.09,4.75-12.15,8.06-17.95
		c-1.39-0.33-1.62,0.51-2.08,0.94c-17.01,15.76-34.36,31.15-52.85,45.35c-7.82,6-11.43,5.58-18.25-1.57
		c-2.14-2.24-3.49-4.83-3.86-7.87c-0.24-1.99-0.55-3.98-0.83-5.98c-1.85,0.32-2.43,1.58-3.3,2.48
		c-10.41,10.73-21.09,21.18-33.31,30.1c-7.32,5.35-15.12,9.67-24.78,7.4c-13.29-3.13-21.68-11.13-25.19-23.88
		c-1.43-5.2-0.59-10.49-1.31-16.35c-4.14,3.84-7.73,7.31-11.47,10.61c-9.45,8.34-19.51,15.85-31.63,20.43
		c-11.07,4.18-21.33,1.84-27.3-6.32c-2.96-4.05-4.92-8.58-6.1-13.4c-0.48-1.94-0.64-3.99-2.07-6.04
		c-7.26,8.42-13.69,16.92-19.17,26.06c-3.45,5.75-6.34,6.14-11.52,1.48c-7.18-6.47-7.42-14.15-4.58-22.49
		c0.71-2.09,2.31-4.04,1.92-6.5c-0.44,0.05-0.63,0.02-0.73,0.09c-1.06,0.76-2.08,1.57-3.15,2.31c-11.62,8.01-23.51,15.4-38,18.08
		c-14.53,2.69-24.3-2.06-30.14-15.03c-2.13-4.73-2.15-9.7-2.18-14.55c-1.13-0.43-1.7,0.07-2.32,0.43
		c-12.92,7.39-26.52,12.78-41.9,12.96c-3.5,0.04-6.33,1.17-9.07,3.49c-7.06,5.97-14.57,11.45-23.94,13.88
		c-10.49,2.72-19.68-3.31-21.08-13.55c-0.37-2.69,0.08-5.4-0.15-8.76c-15.99,16.32-32.8,30.53-51.71,42.41
		c-0.79,0.5-1.99,0.82-1.78,2.13c-0.96,0.32-1.97,0.53-2.86,0.98C782.58,587.44,775.27,589.78,769.61,594.84z M1501.87,409.63
		c0.34-0.12,0.68-0.24,1.03-0.35c0.84-1,1.83-1.93,1.89-3.57c-1.7,0.29-2.49,1.25-2.97,2.55c-0.06,0.38-0.13,0.75-0.19,1.13
		c-0.69-0.12-0.87,0.3-0.96,0.82c-0.83,0.03-1.24,0.6-1.73,1.13c-19.37,20.56-38.22,41.5-53.91,64.81l-0.02,0.12l0.09-0.11
		c2.36-0.77,4.05-2.4,5.81-3.97c12.93-11.5,24.36-24.23,34.36-38.11c5.51-7.65,11.57-14.97,15.95-23.33
		C1501.76,410.55,1502.14,410.26,1501.87,409.63z M1259.12,483.65c0.35,0,0.69-0.01,1.04-0.01c-0.06-0.23-0.11-0.45-0.17-0.68
		c-0.26,0.25-0.52,0.5-0.79,0.75c-0.6-0.01-1.08,0.08-0.9,0.83c-0.42,0.06-1.01-0.02-1.24,0.21c-7.25,7.1-14.16,14.48-19.77,22.86
		c3.58-3.47,7.17-6.96,10.35-10.74c3.49-4.16,8.33-7.26,10.69-12.3c0.37-0.08,0.73-0.15,1.1-0.23
		C1259.32,484.11,1259.22,483.88,1259.12,483.65z M897.03,537.57c-0.36,0.13-0.73,0.25-1.09,0.38c0.08,0.1,0.22,0.28,0.23,0.27
		c0.32-0.18,0.63-0.38,0.94-0.57c0.29-0.28,0.57-0.55,0.86-0.83c1.5-0.24,1.75-1.31,1.82-2.5c1.12-0.08,1.88-0.73,2.57-1.48
		c7.56-8.22,14.26-17.03,19.89-26.55c0.72-1.22,1.66-2.68,1.26-5.05c-3.48,5.2-6.59,9.57-9.4,14.12
		c-4.16,6.75-9.85,12.43-14.39,18.9c-1.49,0.25-1.81,1.27-1.82,2.49C897.61,537.02,897.32,537.29,897.03,537.57z M1262.65,480.28
		c0.83,1.11,1.37-0.19,2.06-0.22c1.59-1.11,3.13-2.25,4.12-4.7c-2.58,0.89-3.98,2.15-5.18,3.68c-0.3,0.44-0.6,0.87-0.9,1.31
		c-0.26,0.24-0.51,0.49-0.77,0.73c0.23,0.05,0.46,0.1,0.68,0.15C1262.66,480.91,1262.65,480.59,1262.65,480.28z M762.93,453
		c-1.79-0.58-2.63,0.67-3.65,1.67c-9.67,9.41-19.07,19.06-28.02,29.09c-3.93,4.4-7.64,8.98-11.45,13.48
		c7.87-7.62,15.13-15.71,22.63-23.6c6.67-7.03,12.97-14.4,20.45-20.72c0.05-0.82,0.11-1.64,0.18-2.44c0.29,0.04,0.58,0.07,0.87,0.11
		c-0.03-0.07-0.07-0.2-0.09-0.2c-0.25,0.04-0.49,0.09-0.73,0.14 M1476.09,449.96c-0.76,0.34-0.91,0.98-0.93,1.69
		c-0.11,0.14-0.23,0.28-0.34,0.42c0.14-0.11,0.28-0.22,0.43-0.34c0.73-0.34,0.93-0.96,0.94-1.67c0.29-0.28,0.58-0.55,0.87-0.83
		c1.61-0.41,2.74-1.13,2.39-3.17c-1.49,0.81-2.21,1.79-2.5,3.08C1476.66,449.41,1476.37,449.69,1476.09,449.96z M1113.08,473.56
		c2.38-0.12,3.36-2.14,4.95-3.33c2.66-1.03,4.97-2.46,6.27-5.05c-2.53,1.18-5.28,2.03-6.77,4.58c-1.9,0.85-3.93,1.56-4.37,3.9
		c-0.32,0.09-0.64,0.18-0.96,0.27c0.08,0.11,0.15,0.22,0.23,0.32C1112.65,474.02,1112.86,473.79,1113.08,473.56z M1482.45,443.39
		c3.18-2.2,5.12-5.35,7.1-8.46c3.12-2.42,4.76-5.75,6.27-9.17c-2.38,2.82-5.72,5-6.57,8.83c-3.61,1.91-5.55,5.08-7.07,8.56
		c-0.15,0.24-0.3,0.48-0.45,0.73C1481.97,443.72,1482.21,443.55,1482.45,443.39z M1071.53,510.71c3.92-1.97,6.64-5.19,9.47-8.29
		c10.17-9.03,20.34-18.07,30.52-27.1c-11.64,7.31-21.3,16.67-31.2,25.78c-3.09,3.06-6.76,5.64-8.87,9.53
		c-0.55,0.13-1.21,0.15-1.21,0.92c0,0.1,0.18,0.28,0.28,0.28C1071.31,511.85,1071.38,511.24,1071.53,510.71z M1119.73,473.14
		c-0.76,0.38-1.62,0.66-2.28,1.16c-13.89,10.48-26.52,22.22-38.25,34.85c-2.36,2.54-5.3,4.68-6.88,8.08c0.75,0.08,1.2,0.23,1.6,0.15
		c0.86-0.17,1.7-0.43,2.53-0.7c9.74-3.19,17.55-9.01,24.4-16.15c7.77-8.1,14.84-16.66,19.47-26.82c0.19-0.26,0.6-0.65,0.53-0.76
		C1120.38,472.22,1120.07,472.82,1119.73,473.14z M926.97,470.87c0.16-5.25-1.04-6.23-5.96-5.28c-2.46,0.48-4.79,1.29-7.08,2.29
		c-7.18,3.13-13.49,7.48-19.33,12.43c-10.41,8.82-19.67,18.53-25.03,31.06c-0.53,1.25-1.74,2.56-0.24,3.82
		c2.14,1.81,1.67,3.63,0.36,5.59c-2.69,4.01-0.9,7.2,2.22,10.01c2.16,1.94,4.89,3.07,7.51,4.34c2.79,1.34,4.74,0.69,6.91-1.4
		c12.5-12.05,22.96-25.57,31.84-40.17C922.52,486.41,926.33,478.94,926.97,470.87z M1240.01,538.19c0.6-0.1,0.95-0.05,1.14-0.2
		c20.19-15.22,40.35-30.48,60.57-45.67c1.96-1.47,1.59-2.33-0.3-3.31c-2.12-1.1-2.61-2.95-2.29-5.03c0.32-2.07,0.92-4.11,1.19-6.18
		c0.41-3.18-1.21-4.39-4.45-3.44c-2.57,0.75-4.81,2.08-6.94,3.61c-17.99,12.95-32.18,29.08-43.53,47.51
		C1243.01,529.38,1240.68,533.43,1240.01,538.19z M858.24,551.42c6.75-0.35,11.91-4,16.79-8.13c1.06-0.9,0.76-1.72-0.5-2.22
		c-3.76-1.48-6.52-4.22-9.44-6.76c-0.88-0.76-1.79-1.8-2.75-0.15c-2.69,4.65-5.29,9.36-6.71,14.53
		C855.13,550.53,855.79,551.75,858.24,551.42z M872,498.57c12.61-15.18,25.87-29.59,45.78-36.53
		C896.76,467.66,883.07,481.64,872,498.57z M1156.9,483.04c9.54-14.11,18.56-28.54,27.9-42.79
		C1173.56,453.34,1164.8,467.93,1156.9,483.04z M750.8,590.49c0.05,0.35,0.11,0.7,0.16,1.05c4.52-0.08,8.74-0.99,11.93-4.73
		C758.86,588.05,754.83,589.27,750.8,590.49z M1047.59,531.58c2.05-1.61,3.74-3.14,4.08-5.58c0.02-0.16-0.8-0.64-0.91-0.56
		c-1.87,1.34-3.1,3.11-3.72,5.26C1047.02,530.79,1047.18,530.92,1047.59,531.58z M1499.42,421.03c-1.21,0.81-2.48,1.57-2.77,3.73
		C1498.82,424.06,1499.22,422.62,1499.42,421.03z M1156.28,485.31c-0.07-0.11-0.15-0.21-0.22-0.32c-0.09,0.09-0.27,0.23-0.25,0.27
		c0.08,0.15,0.23,0.27,0.35,0.39C1156.19,485.54,1156.23,485.43,1156.28,485.31z"/>
	<path class="st1" d="M1497.8,395.9c-11.92,8.09-22.07,17.98-31.75,28.35c-1.01,1.08-2.21,1.79-3.66,2.19
		c2.08-8.89,4.58-17.69,6.17-26.69c4.83-27.36,5.23-54.73,0.33-82.11c-5.74-32.04-17.97-61.76-35.35-89.66
		c-21.64-34.75-48.91-64.06-86.69-83.82c-33.09-17.31-68.43-26.27-105.96-27.52c-18.78-0.63-37.39,1.42-55.73,5.41
		c-35.74,7.79-67.55,22.95-95.15,45.98c-6.3,5.25-12.06,11.15-20.69,13.16c-7.23,1.69-10.64,0.54-14.34-5.42
		c-1.42-2.29-2.96-4.53-4.44-6.79c-25.34-38.73-56.34-72.62-94.85-99.98c-41.48-29.47-87.28-48.67-139.52-52.09
		c-31.18-2.04-61.42,2.36-90.76,12.49c-30.54,10.54-57.93,26.26-82.77,46.05c-18.54,14.77-34.56,31.67-47,51.53
		c-20.25,32.32-26.54,67.44-23.14,104.46c0.36,3.91,0.03,8.13,2.34,11.76c-7.71,9.68-15.41,19.36-23.12,29.04
		c-2.63-9.24-3.55-18.73-4.43-28.21c-1.61-17.42-0.68-34.76,2.3-52c4.43-25.63,13.69-49.56,28.4-71.47
		c25.27-37.64,60.17-64.94,101.49-85.34c35.2-17.38,72.53-28.13,111.91-32.06c47.46-4.74,92.75,2.91,135.82,22.66
		c48.05,22.04,86.46,55.05,119.31,94.42c9.53,11.43,18.56,23.24,26.45,35.76c2.24,3.55,3.91,3.1,6.71,0.99
		c16.74-12.62,35.11-22.66,54.61-30.85c21.66-9.1,44.15-15.42,67.57-19.09c25.22-3.95,50.5-4.69,75.79-1.82
		c52.3,5.92,98.52,24.91,137.13,59.48c19.96,17.87,35.03,39.35,48.63,61.76c14.99,24.7,25.61,51.07,31.48,79.08
		c5.23,24.95,6.41,50.1,3.3,75.4c-0.51,4.18-1.12,8.34-1.71,12.51C1496.32,394.58,1495.99,395.74,1497.8,395.9z"/>
	<path class="st0" d="M927.73,776.3c-1.3-0.34-2.26-0.28-3.57,0.64c-19.33,13.51-40.22,23.87-64.16,27.63
		c-9.19,1.44-18.54,2.11-27.69-0.06c-16.35-3.87-27.87-18.15-28.93-34.84c-0.97-15.33,4.52-28.91,11.88-42.07
		c7.99-14.3,17.9-27.35,28.64-39.86c1.1-1.28,2.52-2.42,2.35-4.33c2.14,0.25,3.09-1.36,4.24-2.56c3.15-3.29,6.18-6.68,9.35-9.95
		c1.47-1.52,3.3-2.77,3.71-5c5.47-5.07,10.92-10.15,16.41-15.2c22.75-20.94,47.18-39.83,74.45-55.24
		c5.95-3.36,12.01-6.61,19.01-7.67c3.02-0.46,5.86-0.21,8.2,2.02c7.5,7.14,8.69,20.33,2.4,28.47c-18.68,24.16-42,43.54-68.44,59.62
		c-7.19,4.37-14.45,8.74-22.94,10.65c-1.44,0.32-3.32,1.75-4.18-0.39c-0.74-1.85,1.27-2.8,2.62-3.39
		c10.94-4.76,19.49-12.49,28.07-20.19c17.95-16.1,35.19-32.8,48.26-52.91c2.47-3.8,4.78-7.74,5.06-12.39
		c0.44-0.09,0.7-0.36,0.36-0.7c-0.11-0.12-0.61,0.1-0.93,0.17c-8.38,3.24-15.69,8.22-22.98,13.15
		c-42,28.44-76.96,63.54-106.71,103.38c-11.03,14.77-20.81,30.45-23.79,48.79c-2.83,17.4,2.32,28.35,23.28,27.45
		c16.01-0.69,30.63-5.85,44.49-12.74c33.21-16.51,63.26-37.49,91.81-60.48c2.2-1.77,3.89-3.81,4.62-6.48
		c3.07-11.21,8.36-21.54,14.06-31.69c12.32-21.91,28.1-41.47,45.58-59.82c8.13-8.53,16.74-16.63,26.81-23.12
		c5.06-3.26,11.59-2.42,15.63,1.63c3.2,3.21,3.09,6.84-0.54,12.21c-7.9,11.69-16.75,22.72-25.98,33.49
		c-13.98,16.32-28.27,32.4-44.43,46.81c-6.11,5.45-11.5,11-14.64,18.55c-4.39,10.53-7.38,21.29-7.79,32.64
		c-0.24,6.77,2.56,9.17,9.68,8.52c4.21-0.38,7.93-2.11,11.56-3.97c15.72-8.03,29.25-18.84,42.32-30.23c1.22-1.06,1.84-2.45,2.48-3.9
		c7.41-16.84,17.37-32.13,30.95-45.15c4.84-4.64,11.4-4.35,16.08,0.52c2.27,2.37,2.83,4.88,0.59,7.54
		c-3.97,4.72-7.42,9.79-10.65,14.97c-8.57,13.75-17.12,27.51-22.2,42.9c-0.73,2.22-1.47,5.33-0.03,6.4
		c1.96,1.44,4.16-1.05,5.97-2.38c14.77-10.84,27.28-23.95,40.28-36.57c12.08-11.72,23.91-23.62,33.28-37.54
		c1.81-2.69,4.24-5.04,6.62-7.33c3.41-3.26,9.61-2.54,12.38,1.19c1.18,1.59,1.31,3.02-0.06,4.56
		c-10.44,11.73-18.93,24.71-26.29,38.33c-8.14,15.07-16.63,30.05-18.98,47.24c-0.2,1.46-1.41,3.29,0.13,4.34
		c1.56,1.06,3.39-0.12,4.99-0.79c6.68-2.79,12.56-6.86,18.1-11.23c13.93-10.98,28.96-20.28,38.22-36.48
		c21.92-38.35,50.43-72.44,80.56-105.22c10.38-11.29,21.32-22.14,33.88-31.35c3.17-2.32,6.58-4.29,10.37-5.51
		c3.1-1,5.1,0.52,6.36,3.09c1.18,2.41,0.62,4.12-1.97,5.56c-3.3,1.84-6.16,4.31-8.91,6.88c-12.89,12.06-23.65,25.74-33.7,39.97
		c-1.15,1.63-2.14,3.46-4.22,4.16c-4.35,1.45-6.72,4.81-9.1,8.22c-18.09,25.96-34.76,52.75-51.68,79.39
		c-3.11,4.89-5.69,10.09-8.51,15.15c-0.43,0.59-0.86,1.19-1.29,1.78c-1.35,0.63-1.95,1.54-1.41,3.02c1.62-0.46,1.89-1.75,2.55-2.74
		c0.13-0.71,0.69-1.41,0.05-2.13c1.63,0.99,2.09-0.61,2.66-1.29c9.04-10.83,19.53-20.35,29.96-29.91
		c15.89-14.57,32.32-28.53,49.95-41.18c7.47-5.36,8.29-5.35,16.44-0.82c0.59,0.33,1.38,0.35,2.08,0.51
		c2.57,5.61,5.2,11.21,4.61,17.57c-3.59,5.86-4.56,12.62-7.18,18.84c-9.32,22.11-20.58,43.08-38.75,59.95
		c-8.41,7.81-17.68,14.34-30.06,15.36c-5.78,0.47-11.15-0.1-15.83-3.6c-0.99-0.74-1.91-1.26-3.18-1c0.26-3.71-3.37-5.32-4.86-8.11
		c-2.85-5.33-2.99-5.29-6.39-0.46c-1.05,1.49-1.99,3.05-2.84,4.65c-0.73,1.36-1.08,3.44-2.62,3.66c-4.45,0.64-7.69,3.78-11.93,4.71
		c-4.68-1.7-7.06-5.35-8.66-9.54c-1.85-4.83-2.13-9.95-2.49-16.36c-3.31,3.32-5.76,5.84-8.29,8.3c-7.4,7.23-14.81,14.52-24.17,19.5
		c-9.79,5.21-19.42,2.07-24.31-7.54c-4.42-8.68-3.23-17.46-0.58-26.26c1.21-4.02,2.62-7.98,4.01-12.2
		c-2.32,0.24-3.01,1.65-4.03,2.58c-10.07,9.28-20.62,18.02-32.58,25.05c-6.47,3.8-10.19,3.39-16.05-1.22
		c-4.91-3.87-8.51-8.66-10.62-14.89c-1.55,1.54-2.67,2.61-3.74,3.73c-9.83,10.3-20.1,20.18-32.72,27.43
		c-15.83,9.09-34.11,0.81-37.22-16.51c-0.89-4.92-0.95-9.88-1.24-15.14c-0.73,0.49-1.12,0.67-1.4,0.95
		c-9.66,9.81-19.25,19.69-29.93,28.54c-0.82,0.68-1.35,1.46-1.33,2.52c-1.16,0.12-2.26,0.24-3.24,1.02
		c-4.02,3.19-8.15,6.26-12.15,9.47C929.62,773.18,928.05,774.33,927.73,776.3z M1234.47,696.12c0.29-0.28,0.59-0.57,0.88-0.85
		c3.87-0.57,5.4-3.72,7.56-6.18c9.06-7.73,18.12-15.45,27.17-23.19c0.37-0.35,0.74-0.71,1.11-1.06c2.59-1.16,4.19-3.31,5.93-5.34
		c-3.1,0.76-4.99,3-7.05,5.03c-0.42,0.54-0.37,1.03,0.16,1.47c-1.6-1.17-2.49,0.34-3.3,1.03c-8.52,7.16-16.95,14.42-25.41,21.65
		c-2.5,1.81-4.83,3.77-6.27,6.5c-0.29,0.29-0.59,0.57-0.88,0.85c-0.13,0.16-0.25,0.31-0.38,0.47
		C1234.14,696.37,1234.3,696.25,1234.47,696.12z M1245.04,629.51c0.06-0.11,0.12-0.22,0.17-0.33c-0.07,0.1-0.14,0.2-0.21,0.29
		c-0.06,0.11-0.11,0.23-0.17,0.34C1244.9,629.71,1244.97,629.61,1245.04,629.51z M952.02,747.51c0.37-0.12,0.73-0.24,1.1-0.36
		c-0.08-0.1-0.21-0.29-0.22-0.28c-0.32,0.18-0.63,0.38-0.95,0.58c-0.29,0.27-0.59,0.54-0.88,0.81c-1.61,0.31-2.75,1.2-3.53,2.54
		c-2.36,1.01-4.53,2.25-5.86,4.47c-0.03,0.05,0.41,0.51,0.56,0.48c2.76-0.59,4.31-2.46,5.44-4.76c1.78-0.14,3.23-0.67,3.49-2.64
		C951.45,748.07,951.73,747.79,952.02,747.51z M883.86,789.62c-3.44-0.33-6.38,1.01-10.41,2.95c4.35-0.82,7.66-0.86,10.31-3.03
		c0.28-0.17,0.56-0.34,0.84-0.51c-0.12-0.07-0.25-0.22-0.35-0.2C883.76,788.92,883.65,789.21,883.86,789.62z M841.43,700.36
		c4.51-2.45,6.95-6.49,9.2-10.69c-3.6,3.14-7.04,6.39-9.38,10.53c-0.62,0.18-1.39,0.21-1.26,1.14c0.02,0.1,0.17,0.26,0.27,0.27
		C841.21,701.68,841.27,700.98,841.43,700.36z M1064.23,631.88c-5.55,5-9.77,10.99-14.03,16.96c-0.23,0.27-0.47,0.53-0.7,0.8
		c0.15,0.11,0.31,0.23,0.46,0.34c0.15-0.33,0.3-0.67,0.45-1c6.31-4.43,10.25-10.63,14.07-16.93c2.75-2.59,5.3-5.3,6.36-9
		C1068.21,625.71,1065.25,628.12,1064.23,631.88z M1234.3,642.85c-7.93,8.54-14.85,17.73-20.27,27.92
		c-0.29,0.31-1.02,0.51-0.29,1.08c0.12-0.35,0.23-0.69,0.35-1.04c5.36-4.8,8.44-11.21,12.91-16.66c2.82-3.44,6.37-6.56,7.54-11.06
		c0.15-0.23,0.29-0.47,0.44-0.7C1234.75,642.54,1234.52,642.7,1234.3,642.85z M1215.56,744.8c10.63,0.04,18.7-4.42,26.23-10.05
		c15.49-11.57,26.22-26.82,36.03-42.73c5.51-8.94,10.98-17.93,13.78-28.1c0.34-1.24,0.82-2.68-0.27-3.58
		c-1.29-1.06-2.49,0.23-3.53,0.86c-5.97,3.65-11.32,8.07-16.68,12.45c-22.41,18.33-43.15,38.2-60.78,60.84
		c-1.64,2.11-5.1,4.42-3.7,6.96c1.57,2.85,5.69,3.06,9.11,3.36C1215.9,744.83,1216.05,744.84,1215.56,744.8z M1075.72,608.15
		c-13.24,12.15-55.22,59.69-55.08,65.91C1032.78,667.6,1067.86,625.62,1075.72,608.15z M891.45,648.01
		c-1.63,0.53-2.09,0.56-2.37,0.79c-7.55,6.26-13.66,13.86-20.86,20.44c-0.6,0.54-1.48,1.35-0.45,2.07c1.09,0.75,1.89-0.2,2.57-0.93
		C877.09,663.24,883.83,656.09,891.45,648.01z M1235.85,640.93c3.91-2.05,5.38-5.95,7.59-9.28
		C1240.05,634.09,1237.77,637.37,1235.85,640.93z M890.56,786.52c-0.1-0.23-0.13-0.56-0.29-0.64c-0.17-0.08-0.56,0.02-0.69,0.16
		c-0.3,0.35-0.16,0.7,0.32,0.76C890.1,786.84,890.34,786.63,890.56,786.52z M838.84,703.01c-0.13,0.04-0.27,0.05-0.37,0.13
		c-0.03,0.02,0.05,0.19,0.08,0.29c0.13-0.04,0.27-0.05,0.37-0.12C838.95,703.28,838.87,703.11,838.84,703.01z M1072.14,621.5
		l-0.24-0.16l-0.03,0.27L1072.14,621.5z M888.12,787.47c-0.1-0.09-0.21-0.26-0.32-0.26c-0.11,0-0.22,0.16-0.34,0.25
		c0.16,0.1,0.31,0.21,0.47,0.31C887.99,787.67,888.05,787.58,888.12,787.47z"/>
	<path class="st0" d="M551.71,272.23c7.71-9.68,15.41-19.36,23.12-29.04c0.82-0.79,1.67-1.56,2.45-2.39
		c18.53-19.8,39.81-36.17,65.35-47.14c15.17-6.52,30.94-10.01,47.62-6.66c10.41,2.09,21.65,10.16,22.94,23.1
		c0.93,9.27,0.34,18.49,0.76,27.73c-1.75,1.71-1.75,3.58-0.45,5.96c0.33-2.19,0.6-4.02,0.87-5.85c1.13-5.07,0.19-10.5,2.62-15.38
		c1.46,6.33,1.05,12.62-0.01,18.78c-2.68,15.5-8.69,29.94-16.65,43.62c-18.57,31.93-43.29,58.9-73.27,81.57
		c-1.15,0.87-3.15,1.26-2.74,3.35c-2.5-0.4-4.05,1.21-5.8,2.45c-5.86,4.12-12.71,6.84-18.08,11.65c-9.5,3.18-18.38,8.01-28.71,9.38
		c9.27,4.71,18.47,9.03,27.81,13.03c7.02,3,13.65,6.87,21.16,8.8c0.59,1.28,1.98,1.92,3.07,2.23c9.03,2.56,17.34,6.95,26.33,9.5
		c4.86,1.38,9.36,4.36,14.81,3.65c0.95,0.84,1.85,1.64,3.2,2.03c17.37,5,34.91,9.61,53.23,8.15c12.11-0.96,24.56-2.76,27.41-17.48
		c0.14-0.74,0.49-1.33,1.4-1.33c0.84,0,1.37,0.41,1.51,1.21c0.46,2.6,1.31,5.1,0.76,7.87c-2.57,12.84-13.31,21.51-27.6,22.41
		c-14.83,0.94-29.37-0.62-43.76-3.93c-0.38-0.2-0.73-0.5-1.14-0.59c-9.83-2.22-19.36-5.28-28.87-8.55
		c-3.79-1.3-7.59-4.93-12.38-2.47c-1.69-1.3-3.12-2.82-5.27-3.62c-41.93-15.74-80.88-37.07-120.03-58.03
		c-6.68-3.57-13.36-7.15-20.05-10.7c-1.86-0.99-3.89-1.76-5.82-0.44c-1.96,1.33-0.37,3.1-0.15,4.65c0.19,1.37,1,3-0.92,3.61
		c-2.26,0.72-4.43,0.18-5.85-1.82c-2.18-3.09-1.64-9.98,0.95-13.24c3.09-3.88,7.01-3.5,11.15-2c13.54,4.9,25.96,12,38.99,17.89
		c3.73,1.68,7.42,3.44,11.07,5.26c2.06,1.03,3.01,1.01,2.54-1.61c-1.36-7.69-1.51-15.37,0.78-22.94c0.54-1.78-0.16-2.24-1.96-2.8
		c-8.31-2.59-12.44-8.28-13.44-16.51c-2.19-18.05,4.66-33.9,12.91-49.42C546.08,281.45,548.98,276.88,551.71,272.23z M627.97,355.69
		c0.72-0.04,1.39-0.18,1.71-0.91c1.48-0.23,2.54-0.92,2.88-2.4c2.35-0.01,3.52-1.73,4.95-3.07c-0.06-0.35-0.12-0.7-0.19-1.05
		c-0.35,0.21-0.7,0.43-1.05,0.64c-1.84,0.51-3.38,1.36-4.01,3.24c-1.44,0.32-2.42,1.08-2.66,2.54c-0.72,0.06-1.36,0.25-1.71,0.94
		c-0.12,0.13-0.24,0.27-0.35,0.4C627.68,355.91,627.83,355.8,627.97,355.69z M679.83,304.62c2.2-2.74,4.07-5.65,5.17-8.99
		c-2.21,2.67-4.9,4.95-6.27,8.15c-11.38,15.51-24.88,29.26-40.04,42.95C646.34,343.6,660.76,328.6,679.83,304.62z M626.42,209.72
		c5.35-3.11,10.7-6.23,16.06-9.34c-6.64,1.61-12.37,4.72-17.57,8.74c-18.1,12.54-34.97,26.35-49.02,43.04
		c2.33-1.77,4.56-3.66,6.63-5.68C596.18,233.17,610.16,220.22,626.42,209.72z M705.48,218.19c0.26-3.42-0.39-6.73-1.08-10.04
		c-1.73-8.3-8.17-12.46-16.98-11.57c-15.52,1.56-29.15,7.69-42.15,15.31c-26.64,15.63-48.98,35.88-68.99,58.59
		c-13.34,15.14-25.05,31.24-31.58,50.24c-2.35,6.84-3.79,13.84-2.01,21.09c0.65,2.65,2.58,4.24,5.09,4.71
		c2.36,0.45,2.4-2.09,3.18-3.42c4.29-7.37,8.88-14.51,14.61-21.01c4.69-5.33,10.07-4.03,14.2-1.85c2.52,1.33,3.16,3.11,1.26,5.51
		c-6.43,8.11-10.95,17.27-15.77,26.26c-2.96,5.51-5.13,11.33-6.89,17.26c-1.69,5.69-0.17,7.29,5.87,6.67
		c8.42-0.87,15.78-4.4,22.88-8.45c19.87-11.35,37.01-25.87,53.04-41.66c20.7-20.38,38.91-42.51,52.61-67.8
		C699.57,245.5,705.11,232.57,705.48,218.19z M621.27,425.87c-10.23-4.56-19.95-10.31-30.85-13.57
		C599.94,418.38,610.53,422.24,621.27,425.87z M624.89,427.49c1.63,1.48,2.53,2.31,4.23,1.78
		C628.18,428.29,627.22,427.77,624.89,427.49z M623.01,426.83c0.08,0.09,0.18,0.26,0.25,0.25c0.22-0.03,0.44-0.13,0.66-0.2
		c-0.21-0.1-0.41-0.22-0.63-0.27C623.21,426.59,623.1,426.75,623.01,426.83z M639.16,347.48c-0.11-0.09-0.21-0.25-0.31-0.25
		s-0.19,0.18-0.29,0.28c0.11,0.09,0.21,0.25,0.31,0.25C638.97,347.75,639.07,347.57,639.16,347.48z"/>
	<path class="st1" d="M927.73,776.3c0.32-1.97,1.88-3.12,3.31-4.26c4-3.21,8.13-6.28,12.15-9.47c0.99-0.78,2.08-0.9,3.24-1.02
		c0.55,0.44,1.19,0.81,1.64,1.32c11.33,12.74,22.67,25.47,33.96,38.24c22.97,25.96,45.9,51.96,68.88,77.91
		c3.52,3.97,3.61,3.92,7.65,0.1c32.76-30.91,65.56-61.78,98.23-92.78c8.33-7.91,17.34-15.17,24.96-23.76
		c4.24-0.93,7.48-4.08,11.93-4.71c1.54-0.22,1.89-2.3,2.62-3.66c0.85-1.6,1.79-3.16,2.84-4.65c3.4-4.83,3.54-4.87,6.39,0.46
		c1.49,2.79,5.12,4.4,4.86,8.11c-5.13,6.36-11.48,11.61-17.42,17.22c-42.86,40.52-85.83,80.93-128.75,121.39
		c-3.88,3.66-8.64,5.77-13.73,7.32c-5.77,1.75-10.33,0.55-14.45-4.15c-23.19-26.49-46.64-52.78-69.97-79.17
		c-12.23-13.84-24.39-27.73-36.56-41.62C928.79,778.28,927.81,777.53,927.73,776.3z"/>
	<path class="st1" d="M863.54,665.89c-0.41,2.22-2.23,3.47-3.71,5c-3.16,3.28-6.19,6.67-9.35,9.95c-1.15,1.19-2.1,2.8-4.24,2.56
		c-8.03-7.65-14.75-16.36-21.97-24.65c-17.6-20.19-35.03-40.51-52.5-60.79c-0.82-0.96-1.45-2.07-2.16-3.12
		c5.66-5.06,12.97-7.4,19.66-10.77c0.89-0.45,1.9-0.66,2.86-0.98c1.43,1.77,2.82,3.58,4.31,5.31
		C818.8,614.24,841.17,640.06,863.54,665.89z"/>
	<path class="st1" d="M1305.4,668.59c0.59-6.36-2.04-11.96-4.61-17.57c1.44-1.57,2.8-3.21,4.34-4.69
		c29.52-28.38,58.07-57.58,83.8-89.17c6.02-7.39,11.87-14.9,17.8-22.36c2.12,2.69,1,5.94,1.57,8.9c0.89,4.57,4.45,8.09,4.93,12.72
		c-8.48,11.67-18.3,22.33-28.02,33.04c-24.3,26.76-50.28,52.03-76.68,76.91C1307.61,667.26,1306.81,668.32,1305.4,668.59z"/>
	<path class="st1" d="M638.65,437.91c4.79-2.47,8.59,1.17,12.38,2.47c9.51,3.27,19.04,6.33,28.87,8.55
		c0.41,0.09,0.76,0.39,1.14,0.59c-0.49,1.65,0.82,2.58,1.67,3.64c10.63,13.32,21.29,26.61,31.95,39.92
		c-4.71,6.58-8.48,13.83-14.92,19.2c-6.47-5.78-11.4-12.8-16.87-19.37c-14.18-17.03-28.07-34.27-42.04-51.45
		C639.95,440.39,638.73,439.45,638.65,437.91z"/>
	<path class="st1" d="M1422.72,544.47c-2.57,0.21-3.36-1.18-3.39-3.34c-0.06-4.5,0.96-8.82,1.83-13.22
		c1.18-5.92,2.66-11.69,5.13-17.22c3.12-6.96,6.78-13.25,13.22-18.37c8.78-6.97,16.35-15.27,23.82-23.59
		c2.82-3.15,6.15-5.91,8.76-9.3c1.35-1.76,2.16-0.41,2.92,0.67c-3.86,10.17-9.42,19.56-14.75,29.06
		c-10.49,18.71-22.72,36.35-35.71,53.54C1424.06,543.38,1423.34,543.89,1422.72,544.47z"/>
	<path class="st2" d="M1498.94,411.33c0.5-0.53,0.9-1.1,1.73-1.13c0.18,0.17,0.36,0.35,0.53,0.53
		c-4.38,8.36-10.44,15.68-15.95,23.33c-10,13.88-21.43,26.61-34.36,38.11c-1.77,1.57-3.45,3.21-5.81,3.97l-0.08,0"/>
	<path class="st2" d="M1445.09,476.15l-0.09,0.11c0,0,0.02-0.12,0.02-0.12C1445.02,476.14,1445.09,476.15,1445.09,476.15z"/>
	<path class="st2" d="M1119.73,473.14c0.33-0.32,0.64-0.93,1.12-0.19c0.07,0.11-0.34,0.5-0.53,0.76
		C1120.11,473.53,1119.92,473.34,1119.73,473.14z"/>
	<path class="st2" d="M1501.83,408.25c0.36,0.34,0.71,0.69,1.07,1.03c-0.34,0.12-0.68,0.23-1.03,0.35l-0.24-0.26
		C1501.7,409,1501.76,408.63,1501.83,408.25z"/>
	<path class="st2" d="M971.9,598.73c0.32-0.07,0.82-0.28,0.93-0.17c0.33,0.35,0.08,0.61-0.36,0.7
		C972.27,599.09,972.08,598.91,971.9,598.73z"/>
	<path class="st1" d="M624.32,369.89c5.13,6.32,8.66,13.58,13.17,20.26c8.27,12.24,16.41,24.56,25.23,36.45
		c0.89,1.2,2.31,2.23,2.18,3.98c-5.44,0.71-9.95-2.27-14.81-3.65c-8.99-2.54-17.29-6.94-26.33-9.5c-1.09-0.31-2.48-0.96-3.07-2.23
		c-0.98-1.54-1.92-3.1-2.94-4.62c-5.92-8.78-12.46-17.19-17.32-26.59c5.37-4.8,12.22-7.53,18.08-11.65
		C620.27,371.11,621.81,369.5,624.32,369.89z"/>
	<path class="st2" d="M600.44,383.99c4.86,9.4,11.4,17.82,17.32,26.59c1.02,1.51,1.96,3.08,2.94,4.62
		c-7.51-1.94-14.14-5.8-21.16-8.8c-9.34-4-18.54-8.32-27.81-13.03C582.06,392.01,590.94,387.17,600.44,383.99z"/>
	<path class="st1" d="M621.27,425.87c-10.74-3.63-21.33-7.49-30.85-13.57C601.32,415.56,611.04,421.3,621.27,425.87z"/>
	<path class="st1" d="M624.89,427.49c2.32,0.28,3.28,0.8,4.23,1.78C627.43,429.8,626.52,428.97,624.89,427.49z"/>
	<path class="st1" d="M623.01,426.83c0.09-0.08,0.21-0.24,0.27-0.22c0.22,0.06,0.42,0.18,0.63,0.27c-0.22,0.07-0.43,0.17-0.66,0.2
		C623.18,427.09,623.09,426.92,623.01,426.83z"/>
	<path class="st2" d="M637.51,349.31c-0.41-0.14-0.82-0.27-1.23-0.41c0.35-0.21,0.7-0.43,1.05-0.64
		C637.38,348.61,637.44,348.96,637.51,349.31z"/>
	<path class="st0" d="M1007.93,338.2c15.95-13.11,32.26-25.78,49.02-37.94c3.76-2.73,6.86-2.71,10.2,0.2
		c1.19,1.04,2.36,2.1,3.56,3.12c4.19,3.59,5.14,7.58,2.98,12.8c-4.48,10.81-8.43,21.82-12.58,32.75c-0.18,0.49-0.19,1.04-0.33,1.87
		c3.31-0.76,5.27-2.95,7.45-4.64c8.81-6.82,17.15-14.22,26.3-20.58c5.54-3.85,10.38-8.24,15.27-12.69c2.12-1.93,2.92-3.17,0.48-5.73
		c-8.5-8.92-9.68-19.89-2.91-30.27c10.59-16.24,25.92-27.43,44-35.24c6.45-2.78,12.96-0.24,16.74,5.48c2.11,3.2,1.21,6.26-0.24,9.23
		c-4.13,8.46-10.14,15.77-15.96,23.18c-7.52,9.56-16.17,18.2-24.81,26.82c-1.77,1.76-1.83,2.62,0.26,4.15
		c3.85,2.81,7.49,5.87,10.91,9.19c5.01,4.88,7.38,10.68,7.75,17.38c0.06,1.05-0.45,2.53,0.85,3.03c1.19,0.46,2.12-0.7,3.03-1.39
		c6.65-5.06,13.29-10.12,20.01-15.24c3.17,4.96,2.25,8.9-1.63,13.19c-10.39,11.49-22.12,21.4-35.76,29.21
		c-12.39,7.1-25.37,8.37-38.96,3.27c-6.68-2.51-11.11-6.86-12.4-13.65c-0.59-3.09-1.53-2.74-3.47-0.98
		c-5.43,4.96-11,9.8-17.28,13.76c-7.72,4.87-13.05,3.83-18.62-3.12c-2.37-2.95-2.81-5.96-1.57-9.46
		c4.8-13.58,11.46-26.43,17.23-39.63c0.58-1.34,2.35-2.92,0.8-4.07c-1.3-0.96-2.97,0.63-4.27,1.43
		c-24.59,15.06-43.36,35.58-59.89,58.16c-3.07,4.19-4.89,4.76-9.33,1.82c-8.26-5.47-10.33-10.58-6.32-18.54
		c0.49-0.98,1.19-1.97,0.71-3.64c-7.75,6.27-15.84,11.71-24.79,15.88c-15.31,7.12-29.16,4.47-40.02-7.98
		c-4.73-5.42-7.03-11.86-6.9-19.33c-2.08,0.34-2.88,1.76-3.91,2.76c-10.73,10.37-22.29,19.77-36.58,25.35
		c-21.67,8.47-42.36-3.71-44.64-25.94c-0.04-0.39-0.26-0.77-0.62-1.79c-3.02,3.07-5.76,5.9-8.55,8.69
		c-7.13,7.1-14.36,14.11-22.62,20.06c-2.71,1.95-5.54,3.7-8.76,4.83c-7.85,2.77-15.89-0.09-20.15-6.97
		c-5.85-9.44-4.31-19.15-1.42-28.92c1.07-3.62,2.35-7.19,3.53-10.78c0.09-0.33,0.32-0.9,0.24-0.95c-0.55-0.3-0.57,0.18-0.67,0.52
		c-5.94,4.96-11.85,9.95-17.81,14.89c-5.46,4.52-11.3,8.56-17.4,12.26c-6.59,3.99-10.35,3.75-16.43-0.83
		c-10.82-8.15-13.47-17.18-7.89-30.77c7.32-17.83,17.97-33.75,32.39-47.23c4.27-3.99,14.03-2.08,16.39,3.21
		c1.14,2.56,0.08,4.65-1.63,6.93c-12.91,17.16-23.99,35.31-31.57,55.24c-1.01,2.65-2.26,6.24-0.01,7.83
		c2.15,1.52,4.58-1.73,6.55-3.19c12.48-9.25,23.22-20.28,34.26-30.98c5.78-5.6,11.18-11.57,17.17-16.96
		c8.02-7.22,13.63-16.15,20.22-24.4c2.31-2.89,4.74-5.74,7.44-8.3c3.26-3.08,9.41-2.35,12.07,1.18c1.41,1.87,1.02,3.52-0.49,5.31
		c-17.54,20.73-30.39,43.99-40.56,68.67c-2.11,5.12-3.2,10.49-4.05,15.9c-0.23,1.48-0.92,3.37,0.48,4.38
		c1.58,1.12,3.39-0.02,4.96-0.75c8.93-4.19,16.6-10.14,24.39-15.91c2.68-1.98,5.31-4.01,7.96-6.03c9.09-6.9,16.85-14.49,22.84-24.47
		c12.49-20.76,30.4-36.7,53.83-46.32c9.44-3.88,15.91-1.87,20.44,5.65c1.73,2.88,2.23,5.83,0.5,8.79
		c-9.48,16.2-21.08,30.81-36.69,42.13c-8.27,6-11.99,5.48-19.37-1.58c-6.3,9.23-12.47,18.41-14.32,29.47
		c-0.91,5.45,3.38,8.7,9.96,7.68c4.51-0.7,8.9-1.96,13.06-3.8c18.16-8.03,34.33-19.06,50.31-30.38c0.98-0.69,1.55-1.57,2.08-2.62
		c11.66-22.97,29.61-40.26,52.82-52.74c3.19-1.71,6.66-2.95,10.27-3.8c8.3-1.95,15.76,2.24,17.94,10.08
		c0.63,2.28-0.15,4.23-1.2,6.03c-9.29,15.82-20.8,29.92-35.71,41.36c-0.11,0.09-0.24,0.16-0.36,0.25
		c-8.22,5.62-12.56,5.35-19.9-1.52c-5.62,8.95-11.82,17.48-13.76,28c-1.26,6.86,2.27,10.23,9.73,9.11c8.3-1.24,15.64-4.8,22.89-8.57
		c14.53-7.56,27.9-16.76,41.19-26.1c2.36-1.66,3.58-4.06,5.16-6.23c8.56-11.77,17.16-23.51,28.37-33.22
		c1.3-1.12,2.76-2.09,4.23-3.01c2.52-1.58,4.7-1.02,6.64,1.07c2.05,2.2,1.77,4.26-0.15,6.37c-6.68,7.34-12.42,15.34-17.76,23.58
		c-4.79,7.39-9.31,14.95-13.97,22.42c-0.62,1-1.1,1.99-0.74,3.17c0,0-0.21-0.05-0.21-0.05L1007.93,338.2z M1155.51,267.91
		c-4.63,3.9-7.96,8.79-11.45,13.56c-0.11,0.14-0.23,0.28-0.34,0.43c0.15-0.12,0.29-0.23,0.44-0.35c5.35-3.35,8.44-8.43,11.45-13.58
		c0.23-0.3,0.46-0.61,0.67-0.92c0.01-0.01-0.2-0.16-0.31-0.25C1155.81,267.17,1155.66,267.54,1155.51,267.91z M1016.22,315.32
		c-7.45,11.14-15.54,21.93-20.28,34.56c7.24-11.42,14.47-22.83,21.71-34.25c1.19-1.52,3.29-2.6,2.96-5.07
		c-1.52,0.21-1.78,1.34-2.43,2.02C1017.41,313.39,1016.86,314.4,1016.22,315.32z M1103.25,356.83c13.06-0.14,23.72-4.97,31.46-15.02
		c4.48-5.82,3.83-11.87-1.5-16.19c-4.04-3.27-8.37-6.2-12.56-9.29c-1.09-0.81-2.03-1.47-3.47-0.36c-6,4.62-10.03,11.02-16.99,15.05
		c-3.57,2.07-6.02,7.33-9.48,10.66c-3.1,2.99-3.06,5.93-1.86,9.42c1.25,3.61,4.33,4.76,7.78,5.3
		C1098.81,356.73,1101.04,356.7,1103.25,356.83z M1160.93,251.26c-0.74,0.24-1.29,0.34-1.74,0.59c-16.11,9.03-29.3,21.1-40.24,35.42
		c-2.4,3.14-4.25,6.76-3.82,10.95c0.23,2.23,1.21,4.35,3.24,5.17c2.08,0.84,2.59-1.77,3.88-2.75c0.57-0.44,1.04-0.99,1.54-1.5
		c12.16-12.4,23.8-25.22,33.71-39.36C1159.21,257.34,1161.57,254.95,1160.93,251.26z M895.26,280.63
		c-18.11,7.55-28.93,22.25-41.05,36.45c6.17,0.85,9.13,0.06,13.7-3.77c3.08-2.59,6.06-5.32,8.84-8.2
		C883.93,297.69,890.52,289.85,895.26,280.63z M980.86,280.64c-3.34-0.17-5.6,1.39-7.83,2.87c-12.85,8.52-22.49,20.01-32.04,31.57
		c-0.45,0.54-1.1,1.09-0.78,1.82c0.44,0.99,1.5,0.64,2.32,0.68c4.12,0.19,7.37-1.75,10.33-4.11c7.92-6.34,14.54-13.83,20.64-21.74
		C976.15,288.3,979.18,285.06,980.86,280.64z M1121.63,306.12c7.07-7.43,15.93-13.4,20.83-22.65
		C1135.75,291.21,1127.71,297.83,1121.63,306.12z M854.74,291.2c-7.31,6.79-14.15,13.95-18.88,22.69
		C842.22,306.38,848.85,299.09,854.74,291.2z M921.74,313.07c5.81-7.58,12.86-14.26,18.38-22.1
		C932.82,297.41,926.39,304.53,921.74,313.07z M863.2,357.39c3.2-0.51,6.28-1.28,9.57-4.19
		C868.27,353.55,865.89,355.79,863.2,357.39z M991.53,359.45c1.48-3.21,2.51-5.44,3.53-7.66C992.45,353.38,991,355.44,991.53,359.45
		z"/>
	<path class="st0" d="M878.77,157c-9.08,7.25-16.05,16.33-23.69,24.82c-5.27,5.86-10.27,11.95-15.67,17.7
		c-4.64,4.94-6.63,4.7-11.59,0.18c-5.41-4.93-6.83-10.59-3.77-17.65c-2.3,0.45-3.15,1.75-4.17,2.74c-4.75,4.62-9.68,9.04-15.05,13
		c-5.76,4.24-11.92,6.83-19.23,3.73c-7.41-3.15-11.82-8.47-13-16.24c-1.67-11.02,2.77-20.69,7.3-30.28
		c5.81-12.31,13.29-23.74,21.33-34.84c0.58-0.8,1.4-1.47,1.26-2.98c-6.83,0.3-13.43,1.96-20.1,3.15c-2.03,0.36-4.05,0.78-6.09,1.06
		c-2.46,0.34-4.39-0.18-4.91-2.93c-0.5-2.6,0.68-3.94,3.26-4.55c9.01-2.12,18.06-4.16,27.38-4.37c5.05-0.11,8.75-1.44,11.83-5.69
		c5.77-7.97,12.56-15.22,19.54-22.27c2.66-2.69,5.35-4.87,9.49-2.2c3.76,2.43,4.22,5.17,1,8.2c-5.66,5.34-10.88,11.04-15.63,17.13
		c-0.68,0.87-1.9,1.68-1.44,2.87c0.54,1.39,2.04,0.67,3.12,0.78c4.25,0.41,8.52,0.65,12.76,1.16c3.63,0.43,6.84,1.74,8.64,5.07
		c0.46,0.86,1.02,1.86-0.08,2.65c-0.96,0.7-1.65,0-2.19-0.68c-1.1-1.41-2.77-1.57-4.35-1.72c-7.2-0.67-14.41-0.65-21.63-0.07
		c-1.97,0.16-3.28,0.9-4.33,2.43c-12.97,18.93-25.87,37.89-33.37,59.6c-1.34,3.88-2.18,7.85-2.4,11.92
		c-0.2,3.68,1.94,5.45,5.77,4.67c3.93-0.81,7.54-2.41,10.89-4.51c10.98-6.89,21.23-14.68,30.7-23.34
		c6.55-5.99,10.02-14.11,15.13-21.11c15.07-20.66,30.92-40.67,50.07-58.13c1.38-1.26,2.89-2.39,4.43-3.46
		c2.94-2.04,5.55-1.72,8.26,0.74c2.66,2.41,2.37,4.26,0.11,6.76c-12.11,13.41-23.81,27.14-34.56,41.57
		c-11.97,16.08-23.35,32.5-31.76,50.61c-0.4,0.87-1.71,1.19-1.54,2.55c1.67,1.02,2.24-0.63,2.97-1.38
		c7.68-7.87,14.63-16.38,22.8-23.82c4.89-4.46,9.53-9.22,15.29-12.72c2.4-1.46,5.08-3.98,7.89-1.39c2.93,2.7,5.81,6.02,4.28,10.35
		c-2.86,8.09-6.12,16.06-9.15,24.1c-0.69,1.84-1.29,3.74-1.67,5.66c-0.29,1.47-1.06,3.43,0.29,4.39c1.41,1.01,3.1-0.34,4.43-1.13
		c4.88-2.9,9.48-6.18,13.81-9.79c3.66-3.05,7.24-6.19,10.86-9.28c4.21-3.6,7.39-7.86,10.18-12.57
		c7.48-12.66,18.22-22.28,31.65-29.14c7.17-3.66,12.17-3.09,15.78,1.44c1.83,2.29,2.18,4.78,0.81,7.09
		c-5.91,9.97-13.06,19.03-22.68,26.08c-3.62,2.66-7.51,4.95-11.63,0.51c-1.1-1.18-1.85-0.16-2.4,0.64
		c-3.25,4.7-6.17,9.62-7.52,15.12c-1.21,4.93,1.22,6.98,6.61,6.18c6.19-0.92,11.67-3.69,16.87-6.65c7-3.98,13.48-8.79,20.25-13.16
		c1.21-0.78,2.66-2.98,3.97-1.49c1.38,1.57,1.95,3.95-0.14,6.08c-7.97,8.12-16.14,15.91-26.86,20.89c-12.71,5.9-24.81,1.56-29.69-11
		c-0.58-1.5-0.82-3.13-1.35-5.2c-5.36,6.03-10.49,11.76-16.25,16.92c-1.39,1.25-2.74,2.55-4.19,3.74
		c-3.77,3.12-7.79,6.17-13.07,3.65c-5.79-2.76-9.9-7.1-10.64-13.54c-0.64-5.56,0.97-10.85,2.89-16.02
		c1.47-3.96,3.17-7.83,4.77-11.74c0.5-0.47,1.1-1.17,0.53-1.66C879.44,155.56,879.16,156.54,878.77,157z M868.72,126.4
		c-1.05,0.34-2.22,0.57-2.11,2.08c1.62,0.12,1.66-1.17,2.15-2.04c0.11-0.13,0.22-0.26,0.33-0.39
		C868.97,126.16,868.84,126.28,868.72,126.4z M848.41,152.59c0.95-0.17,1.45-0.85,1.97-1.54c4.7-6.2,9.43-12.39,14.1-18.61
		c0.49-0.65,1.72-1.2,0.52-2.87c-6.38,7.3-12.45,14.48-16.7,22.92c-1.1,0.3-2.24,0.57-2.03,2.11
		C847.91,154.72,848.16,153.65,848.41,152.59z M938.54,159.17c11.99-3.49,17.67-13.08,23.59-22.44
		C951.76,141.78,944.84,150.18,938.54,159.17z"/>
	<path class="st0" d="M1387.77,472.25c0.02-2.1,1-3.56,1.92-4.96c3.82-5.86,8.29-11.27,13.39-16.17c3.51-3.36,6-3.51,10.13-0.74
		c1.43,0.96,2.74,2.14,3.94,3.36c3.87,3.92,3.75,6.68-0.49,10.35c-2.62,2.26-5.34,4.42-8.06,6.57c-4.12,3.27-7.65,6.96-10.17,11.52
		c-1.66,3.01-3.83,3.23-6.07,0.57C1389.74,479.62,1388.84,475.72,1387.77,472.25z"/>
	<path class="st0" d="M1176.54,234.21c-0.17-1.5,0.55-2.69,1.4-3.87c6.08-8.46,10.94-17.54,15.17-26.95
		c1.95-4.34,4.35-5.08,9.44-2.98c3.94,1.63,5.09,4.14,3.11,8.15c-4.87,9.87-11.53,18.51-20.42,25.48c-1.69,1.32-3.47,2.58-5.84,2.71
		C1177.42,236.86,1176.2,236.37,1176.54,234.21z"/>
	<path class="st2" d="M1007.93,338.2l-0.09-0.13c0,0,0.22,0.05,0.21,0.05S1007.93,338.2,1007.93,338.2z"/>
	<path class="st2" d="M763.28,326.87c0.1-0.33,0.12-0.82,0.67-0.52c0.08,0.05-0.15,0.62-0.24,0.95
		C763.57,327.16,763.42,327.02,763.28,326.87z"/>
	<path class="st1" d="M1144.15,281.55c-0.15,0.11-0.29,0.23-0.44,0.34c0.11-0.14,0.23-0.28,0.34-0.43
		C1144.06,281.47,1144.15,281.55,1144.15,281.55z"/>
	<path class="st2" d="M962.13,136.73c-5.92,9.36-11.6,18.95-23.59,22.44"/>
	<path class="st2" d="M878.77,157c0.38-0.46,0.67-1.44,1.44-0.77c0.56,0.49-0.03,1.18-0.53,1.66
		C879.38,157.59,879.08,157.3,878.77,157z"/>
	<path class="st1" d="M868.72,126.4c0.13-0.12,0.25-0.23,0.38-0.35c-0.11,0.13-0.22,0.26-0.33,0.39
		C868.76,126.44,868.72,126.4,868.72,126.4z"/>
</g>
</svg>
